<?xml version="1.0" encoding="UTF-8"?>
<!DOCTYPE svg PUBLIC "-//W3C//DTD SVG 1.1//EN" "http://www.w3.org/Graphics/SVG/1.1/DTD/svg11.dtd">
<svg xmlns="http://www.w3.org/2000/svg" version="1.1" width="880px" height="246px" style="shape-rendering:geometricPrecision; text-rendering:geometricPrecision; image-rendering:optimizeQuality; fill-rule:evenodd; clip-rule:evenodd" xmlns:xlink="http://www.w3.org/1999/xlink">
<g><path style="opacity:0" fill="none" d="M -0.5,-0.5 C 292.833,-0.5 586.167,-0.5 879.5,-0.5C 879.5,81.5 879.5,163.5 879.5,245.5C 586.167,245.5 292.833,245.5 -0.5,245.5C -0.5,163.5 -0.5,81.5 -0.5,-0.5 Z"/></g>
<g><path style="opacity:1" fill="#09090a" d="M 211.5,62.5 C 204.352,63.4916 197.019,63.825 189.5,63.5C 163.147,47.989 136.48,32.989 109.5,18.5C 80.3743,34.8978 51.3743,51.5645 22.5,68.5C 51.0687,85.6172 80.0687,101.951 109.5,117.5C 110.813,129.276 111.48,141.276 111.5,153.5C 111.5,165.338 111.167,177.005 110.5,188.5C 75.3298,169.374 40.3298,149.708 5.5,129.5C 4.3447,107.876 4.17804,86.2098 5,64.5C 40.0854,44.3735 75.2521,24.3735 110.5,4.5C 144.204,23.8935 177.871,43.2269 211.5,62.5 Z"/></g>
<g><path style="opacity:0" fill="none" d="M 189.5,63.5 C 174.676,64.4961 159.676,64.8294 144.5,64.5C 144.815,60.6286 144.482,56.9619 143.5,53.5C 142.84,48.6848 140.506,44.8515 136.5,42C 120.367,31.8445 103.7,30.8445 86.5,39C 77.0627,45.0479 73.3961,53.7146 75.5,65C 74.4412,83.4471 83.1079,93.9471 101.5,96.5C 104.962,97.4816 108.629,97.815 112.5,97.5C 112.793,104.255 112.46,110.922 111.5,117.5C 110.833,117.5 110.167,117.5 109.5,117.5C 80.0687,101.951 51.0687,85.6172 22.5,68.5C 51.3743,51.5645 80.3743,34.8978 109.5,18.5C 136.48,32.989 163.147,47.989 189.5,63.5 Z"/></g>
<g><path style="opacity:1" fill="#0d0d0d" d="M 143.5,53.5 C 143.5,56.8333 143.5,60.1667 143.5,63.5C 139.298,63.8168 135.298,63.4834 131.5,62.5C 137.074,57.3962 136.741,52.5628 130.5,48C 116.987,41.1657 103.32,40.8324 89.5,47C 82.8899,51.0072 81.8899,56.0072 86.5,62C 91.0444,66.1054 96.3777,68.2721 102.5,68.5C 105.287,69.4767 108.287,69.81 111.5,69.5C 111.5,72.1667 111.5,74.8333 111.5,77.5C 101.77,77.8228 92.7697,75.4895 84.5,70.5C 83.5398,78.2232 86.8731,83.2232 94.5,85.5C 99.7469,88.1092 105.414,89.1092 111.5,88.5C 111.5,91.1667 111.5,93.8333 111.5,96.5C 108.167,96.5 104.833,96.5 101.5,96.5C 83.1079,93.9471 74.4412,83.4471 75.5,65C 73.3961,53.7146 77.0627,45.0479 86.5,39C 103.7,30.8445 120.367,31.8445 136.5,42C 140.506,44.8515 142.84,48.6848 143.5,53.5 Z"/></g>
<g><path style="opacity:0" fill="none" d="M 131.5,62.5 C 130.957,62.56 130.624,62.8933 130.5,63.5C 134.982,64.1669 139.316,64.8336 143.5,65.5C 133.5,65.5 123.5,65.5 113.5,65.5C 112.596,66.209 112.263,67.209 112.5,68.5C 109.167,68.5 105.833,68.5 102.5,68.5C 96.3777,68.2721 91.0444,66.1054 86.5,62C 81.8899,56.0072 82.8899,51.0072 89.5,47C 103.32,40.8324 116.987,41.1657 130.5,48C 136.741,52.5628 137.074,57.3962 131.5,62.5 Z"/></g>
<g><path style="opacity:1" fill="#c2c2c2" d="M 143.5,53.5 C 144.482,56.9619 144.815,60.6286 144.5,64.5C 159.676,64.8294 174.676,64.4961 189.5,63.5C 197.019,63.825 204.352,63.4916 211.5,62.5C 212.043,62.56 212.376,62.8933 212.5,63.5C 205.011,64.1667 197.678,64.8334 190.5,65.5C 174.833,65.5 159.167,65.5 143.5,65.5C 139.316,64.8336 134.982,64.1669 130.5,63.5C 130.624,62.8933 130.957,62.56 131.5,62.5C 135.298,63.4834 139.298,63.8168 143.5,63.5C 143.5,60.1667 143.5,56.8333 143.5,53.5 Z"/></g>
<g><path style="opacity:1" fill="#090403" d="M 446.5,65.5 C 469.51,65.1669 492.51,65.5003 515.5,66.5C 522.333,78.1667 529.167,89.8333 536,101.5C 542.697,89.9958 549.53,78.6625 556.5,67.5C 576.598,66.8446 596.598,66.1779 616.5,65.5C 619.5,65.5 622.5,65.5 625.5,65.5C 665.33,66.4986 705.33,66.8319 745.5,66.5C 745.5,83.5 745.5,100.5 745.5,117.5C 722.5,117.5 699.5,117.5 676.5,117.5C 676.5,120.5 676.5,123.5 676.5,126.5C 697.833,126.5 719.167,126.5 740.5,126.5C 740.5,143.833 740.5,161.167 740.5,178.5C 719.167,178.5 697.833,178.5 676.5,178.5C 676.5,181.167 676.5,183.833 676.5,186.5C 699.5,186.5 722.5,186.5 745.5,186.5C 745.5,203.833 745.5,221.167 745.5,238.5C 682.832,238.667 620.166,238.5 557.5,238C 550.711,225.586 543.545,213.42 536,201.5C 528.582,213.335 521.415,225.335 514.5,237.5C 456.833,238.833 399.167,238.833 341.5,237.5C 333.409,221.648 325.075,205.981 316.5,190.5C 316.217,189.711 315.717,189.044 315,188.5C 314.5,205.163 314.333,221.83 314.5,238.5C 294.833,238.5 275.167,238.5 255.5,238.5C 255.832,227.813 255.499,217.146 254.5,206.5C 253.893,206.624 253.56,206.957 253.5,207.5C 252.89,208.391 252.557,209.391 252.5,210.5C 241.994,225.939 227.328,235.106 208.5,238C 177.168,238.5 145.835,238.667 114.5,238.5C 114.5,181.167 114.5,123.833 114.5,66.5C 144.167,66.5 173.833,66.5 203.5,66.5C 222.581,68.1166 237.414,76.7833 248,92.5C 250.12,97.6443 251.62,102.978 252.5,108.5C 252.5,111.833 252.5,115.167 252.5,118.5C 251.018,129.465 246.351,138.798 238.5,146.5C 243.866,150.866 248.533,155.866 252.5,161.5C 253.11,162.391 253.443,163.391 253.5,164.5C 253.56,165.043 253.893,165.376 254.5,165.5C 255.5,132.507 255.833,99.5067 255.5,66.5C 282.833,66.5 310.167,66.5 337.5,66.5C 364.855,67.8784 383.522,81.2117 393.5,106.5C 393.5,106.833 393.5,107.167 393.5,107.5C 393.39,110.059 394.056,112.392 395.5,114.5C 396.499,98.5139 396.833,82.5139 396.5,66.5C 413.342,66.8298 430.008,66.4965 446.5,65.5 Z"/></g>
<g><path style="opacity:1" fill="#353535" d="M 616.5,65.5 C 596.598,66.1779 576.598,66.8446 556.5,67.5C 576.139,65.512 596.139,64.8453 616.5,65.5 Z"/></g>
<g><path style="opacity:1" fill="#d5d5d5" d="M 254.5,65.5 C 254.832,98.6709 254.498,131.671 253.5,164.5C 253.443,163.391 253.11,162.391 252.5,161.5C 253.833,147.167 253.833,132.833 252.5,118.5C 252.5,115.167 252.5,111.833 252.5,108.5C 253.167,94.1667 253.833,79.8333 254.5,65.5 Z"/></g>
<g><path style="opacity:1" fill="#060303" d="M 748.5,65.5 C 768.167,65.5 787.833,65.5 807.5,65.5C 807.5,105.833 807.5,146.167 807.5,186.5C 828.5,186.5 849.5,186.5 870.5,186.5C 870.5,203.833 870.5,221.167 870.5,238.5C 829.833,238.5 789.167,238.5 748.5,238.5C 748.5,180.833 748.5,123.167 748.5,65.5 Z"/></g>
<g><path style="opacity:1" fill="#333333" d="M 113.5,65.5 C 123.5,65.5 133.5,65.5 143.5,65.5C 159.167,65.5 174.833,65.5 190.5,65.5C 195.032,65.1818 199.366,65.5151 203.5,66.5C 173.833,66.5 144.167,66.5 114.5,66.5C 114.5,123.833 114.5,181.167 114.5,238.5C 114.167,238.5 113.833,238.5 113.5,238.5C 113.5,180.833 113.5,123.167 113.5,65.5 Z"/></g>
<g><path style="opacity:1" fill="#343434" d="M 254.5,65.5 C 282.338,65.1687 310.005,65.5021 337.5,66.5C 310.167,66.5 282.833,66.5 255.5,66.5C 255.833,99.5067 255.5,132.507 254.5,165.5C 253.893,165.376 253.56,165.043 253.5,164.5C 254.498,131.671 254.832,98.6709 254.5,65.5 Z"/></g>
<g><path style="opacity:1" fill="#bebebe" d="M 395.5,65.5 C 395.667,80.1705 395.5,94.8371 395,109.5C 394.722,108.584 394.222,107.918 393.5,107.5C 393.5,107.167 393.5,106.833 393.5,106.5C 394.167,92.8333 394.833,79.1667 395.5,65.5 Z"/></g>
<g><path style="opacity:1" fill="#2b2b2b" d="M 395.5,65.5 C 412.5,65.5 429.5,65.5 446.5,65.5C 430.008,66.4965 413.342,66.8298 396.5,66.5C 396.833,82.5139 396.499,98.5139 395.5,114.5C 394.056,112.392 393.39,110.059 393.5,107.5C 394.222,107.918 394.722,108.584 395,109.5C 395.5,94.8371 395.667,80.1705 395.5,65.5 Z"/></g>
<g><path style="opacity:1" fill="#4e4e4e" d="M 625.5,65.5 C 665.833,65.5 706.167,65.5 746.5,65.5C 746.5,82.8333 746.5,100.167 746.5,117.5C 746.167,117.5 745.833,117.5 745.5,117.5C 745.5,100.5 745.5,83.5 745.5,66.5C 705.33,66.8319 665.33,66.4986 625.5,65.5 Z"/></g>
<g><path style="opacity:0" fill="none" d="M 111.5,77.5 C 112.479,80.6248 112.813,83.9581 112.5,87.5C 106.378,87.7317 100.378,87.0651 94.5,85.5C 86.8731,83.2232 83.5398,78.2232 84.5,70.5C 92.7697,75.4895 101.77,77.8228 111.5,77.5 Z"/></g>
<g><path style="opacity:1" fill="#3d140b" d="M 509.5,75.5 C 494.324,75.1706 479.324,75.5039 464.5,76.5C 463.957,76.44 463.624,76.1067 463.5,75.5C 478.995,74.1736 494.328,74.1736 509.5,75.5 Z"/></g>
<g><path style="opacity:1" fill="#fa512f" d="M 338.5,76.5 C 368.43,78.9296 384.43,95.0962 386.5,125C 387.602,145.8 379.269,161.467 361.5,172C 370.278,189.057 379.445,205.891 389,222.5C 390.411,224.65 391.245,226.984 391.5,229.5C 376.818,229.833 362.152,229.499 347.5,228.5C 338.965,211.421 329.965,194.754 320.5,178.5C 315.36,177.512 310.026,177.179 304.5,177.5C 304.5,194.5 304.5,211.5 304.5,228.5C 291.5,228.5 278.5,228.5 265.5,228.5C 265.5,177.833 265.5,127.167 265.5,76.5C 289.833,76.5 314.167,76.5 338.5,76.5 Z"/></g>
<g><path style="opacity:1" fill="#ce4226" d="M 203.5,76.5 C 177.167,76.5 150.833,76.5 124.5,76.5C 124.5,127.167 124.5,177.833 124.5,228.5C 150.167,228.5 175.833,228.5 201.5,228.5C 175.672,229.498 149.672,229.831 123.5,229.5C 123.5,178.167 123.5,126.833 123.5,75.5C 150.339,75.1688 177.005,75.5021 203.5,76.5 Z"/></g>
<g><path style="opacity:1" fill="#fb512f" d="M 203.5,76.5 C 220.37,77.842 232.87,85.842 241,100.5C 246.572,125.028 237.406,141.028 213.5,148.5C 225.786,149.556 235.619,154.889 243,164.5C 244.845,166.867 246.011,169.533 246.5,172.5C 246.41,175.152 247.076,177.485 248.5,179.5C 248.528,184.862 248.194,190.195 247.5,195.5C 244.042,209.134 235.709,218.634 222.5,224C 215.723,226.589 208.723,228.089 201.5,228.5C 175.833,228.5 150.167,228.5 124.5,228.5C 124.5,177.833 124.5,127.167 124.5,76.5C 150.833,76.5 177.167,76.5 203.5,76.5 Z"/></g>
<g><path style="opacity:1" fill="#d54528" d="M 338.5,76.5 C 314.167,76.5 289.833,76.5 265.5,76.5C 265.5,127.167 265.5,177.833 265.5,228.5C 278.5,228.5 291.5,228.5 304.5,228.5C 291.344,229.496 278.01,229.829 264.5,229.5C 264.5,178.167 264.5,126.833 264.5,75.5C 289.339,75.169 314.006,75.5023 338.5,76.5 Z"/></g>
<g><path style="opacity:1" fill="#672213" d="M 405.5,75.5 C 405.5,126.167 405.5,176.833 405.5,227.5C 418.323,228.495 431.323,228.829 444.5,228.5C 444.833,228.5 445.167,228.5 445.5,228.5C 432.01,229.496 418.344,229.829 404.5,229.5C 404.168,177.997 404.501,126.664 405.5,75.5 Z"/></g>
<g><path style="opacity:1" fill="#fc5230" d="M 444.5,228.5 C 431.323,228.829 418.323,228.495 405.5,227.5C 406.499,177.336 406.832,127.003 406.5,76.5C 419.167,76.5 431.833,76.5 444.5,76.5C 444.5,127.167 444.5,177.833 444.5,228.5 Z"/></g>
<g><path style="opacity:1" fill="#ea4d2d" d="M 405.5,75.5 C 418.833,75.5 432.167,75.5 445.5,75.5C 445.5,126.5 445.5,177.5 445.5,228.5C 445.167,228.5 444.833,228.5 444.5,228.5C 444.5,177.833 444.5,127.167 444.5,76.5C 431.833,76.5 419.167,76.5 406.5,76.5C 406.832,127.003 406.499,177.336 405.5,227.5C 405.5,176.833 405.5,126.167 405.5,75.5 Z"/></g>
<g><path style="opacity:1" fill="#f9512f" d="M 509.5,75.5 C 517.902,90.636 526.569,105.636 535.5,120.5C 536.478,120.023 537.311,119.357 538,118.5C 546.04,104.252 554.207,90.085 562.5,76C 577.511,75.1672 592.511,75.3338 607.5,76.5C 592.116,101.435 577.116,126.602 562.5,152C 577.975,177.123 593.308,202.289 608.5,227.5C 593.676,228.496 578.676,228.829 563.5,228.5C 554.774,214.06 546.274,199.393 538,184.5C 537.311,183.643 536.478,182.977 535.5,182.5C 526.474,197.896 517.474,213.23 508.5,228.5C 493.324,228.829 478.324,228.496 463.5,227.5C 478.692,202.289 494.025,177.123 509.5,152C 494.369,126.905 479.369,101.738 464.5,76.5C 479.324,75.5039 494.324,75.1706 509.5,75.5 Z"/></g>
<g><path style="opacity:1" fill="#e54a2a" d="M 736.5,107.5 C 736.167,107.5 735.833,107.5 735.5,107.5C 735.5,97.1667 735.5,86.8333 735.5,76.5C 699.5,76.5 663.5,76.5 627.5,76.5C 627.5,127.167 627.5,177.833 627.5,228.5C 627.167,228.5 626.833,228.5 626.5,228.5C 626.5,177.5 626.5,126.5 626.5,75.5C 663.167,75.5 699.833,75.5 736.5,75.5C 736.5,86.1667 736.5,96.8333 736.5,107.5 Z"/></g>
<g><path style="opacity:1" fill="#fb5230" d="M 735.5,107.5 C 712.5,107.5 689.5,107.5 666.5,107.5C 666.5,117.167 666.5,126.833 666.5,136.5C 687.833,136.5 709.167,136.5 730.5,136.5C 730.5,147.167 730.5,157.833 730.5,168.5C 709.5,168.5 688.5,168.5 667.5,168.5C 666.506,177.652 666.173,186.985 666.5,196.5C 689.5,196.5 712.5,196.5 735.5,196.5C 735.5,207.167 735.5,217.833 735.5,228.5C 699.5,228.5 663.5,228.5 627.5,228.5C 627.5,177.833 627.5,127.167 627.5,76.5C 663.5,76.5 699.5,76.5 735.5,76.5C 735.5,86.8333 735.5,97.1667 735.5,107.5 Z"/></g>
<g><path style="opacity:1" fill="#fa512f" d="M 758.5,75.5 C 771.833,75.5 785.167,75.5 798.5,75.5C 798.5,115.833 798.5,156.167 798.5,196.5C 819.167,196.5 839.833,196.5 860.5,196.5C 860.5,207.167 860.5,217.833 860.5,228.5C 826.5,228.5 792.5,228.5 758.5,228.5C 758.5,177.5 758.5,126.5 758.5,75.5 Z"/></g>
<g><path style="opacity:1" fill="#353535" d="M 615.5,81.5 C 615.56,80.9569 615.893,80.6236 616.5,80.5C 617.833,127.5 617.833,174.5 616.5,221.5C 615.893,221.376 615.56,221.043 615.5,220.5C 616.833,174.167 616.833,127.833 615.5,81.5 Z"/></g>
<g><path style="opacity:0" fill="none" d="M 457.5,84.5 C 456.167,128.833 456.167,173.167 457.5,217.5C 457.539,218.756 457.039,219.756 456,220.5C 455.333,174.167 455.333,127.833 456,81.5C 457.039,82.2438 457.539,83.2438 457.5,84.5 Z"/></g>
<g><path style="opacity:0" fill="none" d="M 457.5,84.5 C 471.075,106.642 484.408,128.976 497.5,151.5C 484.659,173.858 471.325,195.858 457.5,217.5C 456.167,173.167 456.167,128.833 457.5,84.5 Z"/></g>
<g><path style="opacity:0" fill="none" d="M 614.5,84.5 C 615.833,128.833 615.833,173.167 614.5,217.5C 600.977,195.63 587.31,173.797 573.5,152C 586.809,129.203 600.476,106.703 614.5,84.5 Z"/></g>
<g><path style="opacity:0" fill="none" d="M 615.5,81.5 C 616.833,127.833 616.833,174.167 615.5,220.5C 614.89,219.609 614.557,218.609 614.5,217.5C 615.833,173.167 615.833,128.833 614.5,84.5C 614.557,83.391 614.89,82.391 615.5,81.5 Z"/></g>
<g><path style="opacity:1" fill="#17a1e3" d="M 12.5,73.5 C 44.0153,90.1751 75.182,107.508 106,125.5C 106.667,142.833 106.667,160.167 106,177.5C 75.0857,160.293 44.2524,142.96 13.5,125.5C 12.5005,108.179 12.1672,90.8461 12.5,73.5 Z"/></g>
<g><path style="opacity:1" fill="#0a0a0a" d="M 27.5,87.5 C 39.6585,88.1482 47.1585,94.4816 50,106.5C 50.8773,113.249 50.544,119.916 49,126.5C 43.6754,135.115 36.842,136.615 28.5,131C 18.1747,120.535 15.3414,108.368 20,94.5C 22.3959,91.9334 24.8959,89.6 27.5,87.5 Z"/></g>
<g><path style="opacity:1" fill="#268dc0" d="M 30.5,107.5 C 29.8354,105.631 29.1687,103.631 28.5,101.5C 26.7298,104.193 26.0632,107.193 26.5,110.5C 24.5272,105.117 25.5272,100.284 29.5,96C 30.4835,95.4092 31.1501,95.7425 31.5,97C 30.6178,100.441 30.2845,103.941 30.5,107.5 Z"/></g>
<g><path style="opacity:1" fill="#e2e2e2" d="M 38.5,102.5 C 42.0886,106.434 43.2552,111.101 42,116.5C 38.9228,112.369 37.7562,107.702 38.5,102.5 Z"/></g>
<g><path style="opacity:1" fill="#7f2918" d="M 735.5,107.5 C 735.833,107.5 736.167,107.5 736.5,107.5C 713.673,108.498 690.673,108.831 667.5,108.5C 667.5,117.5 667.5,126.5 667.5,135.5C 688.833,135.5 710.167,135.5 731.5,135.5C 731.828,146.679 731.495,157.679 730.5,168.5C 730.5,157.833 730.5,147.167 730.5,136.5C 709.167,136.5 687.833,136.5 666.5,136.5C 666.5,126.833 666.5,117.167 666.5,107.5C 689.5,107.5 712.5,107.5 735.5,107.5 Z"/></g>
<g><path style="opacity:1" fill="#060302" d="M 185.5,107.5 C 196.862,109.011 202.029,115.344 201,126.5C 198.079,133.22 192.913,136.886 185.5,137.5C 178.5,137.5 171.5,137.5 164.5,137.5C 164.5,127.5 164.5,117.5 164.5,107.5C 171.5,107.5 178.5,107.5 185.5,107.5 Z"/></g>
<g><path style="opacity:1" fill="#070404" d="M 326.5,108.5 C 341.118,110.625 346.951,118.959 344,133.5C 340.44,141.372 334.273,145.372 325.5,145.5C 318.833,145.5 312.167,145.5 305.5,145.5C 305.5,133.167 305.5,120.833 305.5,108.5C 312.5,108.5 319.5,108.5 326.5,108.5 Z"/></g>
<g><path style="opacity:1" fill="#7b2717" d="M 185.5,107.5 C 178.5,107.5 171.5,107.5 164.5,107.5C 164.5,117.5 164.5,127.5 164.5,137.5C 171.5,137.5 178.5,137.5 185.5,137.5C 178.352,138.492 171.019,138.825 163.5,138.5C 163.5,127.833 163.5,117.167 163.5,106.5C 171.019,106.175 178.352,106.508 185.5,107.5 Z"/></g>
<g><path style="opacity:1" fill="#5b1d11" d="M 326.5,108.5 C 319.5,108.5 312.5,108.5 305.5,108.5C 305.5,120.833 305.5,133.167 305.5,145.5C 312.167,145.5 318.833,145.5 325.5,145.5C 318.687,146.491 311.687,146.825 304.5,146.5C 304.5,133.5 304.5,120.5 304.5,107.5C 312.019,107.175 319.352,107.508 326.5,108.5 Z"/></g>
<g><path style="opacity:1" fill="#090a0b" d="M 74.5,114.5 C 86.0748,113.565 93.9081,118.565 98,129.5C 101.728,138.826 101.061,147.826 96,156.5C 87.8018,162.475 80.4684,161.475 74,153.5C 66.1975,142.819 64.8641,131.486 70,119.5C 71.7073,117.963 73.2073,116.296 74.5,114.5 Z"/></g>
<g><path style="opacity:1" fill="#a3a3a3" d="M 185.5,117.5 C 181.833,117.5 178.167,117.5 174.5,117.5C 174.5,120.833 174.5,124.167 174.5,127.5C 178.167,127.5 181.833,127.5 185.5,127.5C 181.702,128.483 177.702,128.817 173.5,128.5C 173.5,124.5 173.5,120.5 173.5,116.5C 177.702,116.183 181.702,116.517 185.5,117.5 Z"/></g>
<g><path style="opacity:0" fill="none" d="M 185.5,117.5 C 191.949,118.955 192.949,122.122 188.5,127C 187.552,127.483 186.552,127.649 185.5,127.5C 181.833,127.5 178.167,127.5 174.5,127.5C 174.5,124.167 174.5,120.833 174.5,117.5C 178.167,117.5 181.833,117.5 185.5,117.5 Z"/></g>
<g><path style="opacity:1" fill="#9d9d9d" d="M 745.5,117.5 C 745.833,117.5 746.167,117.5 746.5,117.5C 723.673,118.498 700.673,118.831 677.5,118.5C 677.5,120.833 677.5,123.167 677.5,125.5C 698.673,125.169 719.673,125.503 740.5,126.5C 719.167,126.5 697.833,126.5 676.5,126.5C 676.5,123.5 676.5,120.5 676.5,117.5C 699.5,117.5 722.5,117.5 745.5,117.5 Z"/></g>
<g><path style="opacity:1" fill="#23a0df" d="M 30.5,107.5 C 31.3694,114.572 34.3694,120.572 39.5,125.5C 36.5717,126.788 34.0717,126.121 32,123.5C 29.0535,119.61 27.2202,115.277 26.5,110.5C 26.0632,107.193 26.7298,104.193 28.5,101.5C 29.1687,103.631 29.8354,105.631 30.5,107.5 Z"/></g>
<g><path style="opacity:1" fill="#cecece" d="M 113.5,65.5 C 113.5,123.167 113.5,180.833 113.5,238.5C 113.137,222.103 112.137,205.77 110.5,189.5C 111.832,177.852 112.499,165.852 112.5,153.5C 112.5,141.329 112.167,129.329 111.5,117.5C 112.46,110.922 112.793,104.255 112.5,97.5C 108.629,97.815 104.962,97.4816 101.5,96.5C 104.833,96.5 108.167,96.5 111.5,96.5C 111.5,93.8333 111.5,91.1667 111.5,88.5C 105.414,89.1092 99.7469,88.1092 94.5,85.5C 100.378,87.0651 106.378,87.7317 112.5,87.5C 112.813,83.9581 112.479,80.6248 111.5,77.5C 111.5,74.8333 111.5,72.1667 111.5,69.5C 108.287,69.81 105.287,69.4767 102.5,68.5C 105.833,68.5 109.167,68.5 112.5,68.5C 112.263,67.209 112.596,66.209 113.5,65.5 Z"/></g>
<g><path style="opacity:0" fill="none" d="M 326.5,118.5 C 332.47,118.302 335.137,121.135 334.5,127C 335.279,132.389 332.945,135.222 327.5,135.5C 323.5,135.5 319.5,135.5 315.5,135.5C 315.5,129.833 315.5,124.167 315.5,118.5C 319.167,118.5 322.833,118.5 326.5,118.5 Z"/></g>
<g><path style="opacity:1" fill="#727272" d="M 109.5,117.5 C 110.167,117.5 110.833,117.5 111.5,117.5C 112.167,129.329 112.5,141.329 112.5,153.5C 112.499,165.852 111.832,177.852 110.5,189.5C 110.5,189.167 110.5,188.833 110.5,188.5C 111.167,177.005 111.5,165.338 111.5,153.5C 111.48,141.276 110.813,129.276 109.5,117.5 Z"/></g>
<g><path style="opacity:0" fill="none" d="M 252.5,118.5 C 253.833,132.833 253.833,147.167 252.5,161.5C 248.533,155.866 243.866,150.866 238.5,146.5C 246.351,138.798 251.018,129.465 252.5,118.5 Z"/></g>
<g><path style="opacity:1" fill="#c4c4c4" d="M 326.5,118.5 C 322.833,118.5 319.167,118.5 315.5,118.5C 315.5,124.167 315.5,129.833 315.5,135.5C 319.5,135.5 323.5,135.5 327.5,135.5C 323.366,136.485 319.032,136.818 314.5,136.5C 314.5,130.167 314.5,123.833 314.5,117.5C 318.702,117.183 322.702,117.517 326.5,118.5 Z"/></g>
<g><path style="opacity:1" fill="#1fa0e0" d="M 78.5,121.5 C 81.9983,121.565 82.4983,122.899 80,125.5C 78.0982,135.89 80.9316,144.557 88.5,151.5C 87.8333,151.833 87.1667,152.167 86.5,152.5C 81.0424,149.864 77.5424,145.53 76,139.5C 75.3333,134.833 75.3333,130.167 76,125.5C 76.6622,124.016 77.4955,122.683 78.5,121.5 Z"/></g>
<g><path style="opacity:1" fill="#d4d4d4" d="M 87.5,128.5 C 91.6755,132.7 93.0088,137.7 91.5,143.5C 88.0074,139.121 86.6741,134.121 87.5,128.5 Z"/></g>
<g><path style="opacity:1" fill="#242424" d="M 394.5,213.5 C 395.833,190.5 395.833,167.5 394.5,144.5C 394.238,143.022 394.571,141.689 395.5,140.5C 396.833,165.167 396.833,189.833 395.5,214.5C 394.893,214.376 394.56,214.043 394.5,213.5 Z"/></g>
<g><path style="opacity:0" fill="none" d="M 393.5,148.5 C 394.833,169.5 394.833,190.5 393.5,211.5C 387.162,199.49 380.829,187.49 374.5,175.5C 383.069,168.013 389.402,159.013 393.5,148.5 Z"/></g>
<g><path style="opacity:1" fill="#bcbcbc" d="M 394.5,144.5 C 395.833,167.5 395.833,190.5 394.5,213.5C 394.167,212.833 393.833,212.167 393.5,211.5C 394.833,190.5 394.833,169.5 393.5,148.5C 393.232,146.901 393.566,145.568 394.5,144.5 Z"/></g>
<g><path style="opacity:1" fill="#672113" d="M 188.5,163.5 C 180.5,163.5 172.5,163.5 164.5,163.5C 164.5,174.5 164.5,185.5 164.5,196.5C 163.505,185.346 163.172,174.012 163.5,162.5C 172.017,162.174 180.35,162.507 188.5,163.5 Z"/></g>
<g><path style="opacity:1" fill="#050201" d="M 188.5,163.5 C 204.845,166.186 209.679,175.186 203,190.5C 199.129,193.851 194.629,195.685 189.5,196C 181.173,196.5 172.84,196.666 164.5,196.5C 164.5,185.5 164.5,174.5 164.5,163.5C 172.5,163.5 180.5,163.5 188.5,163.5 Z"/></g>
<g><path style="opacity:1" fill="#959595" d="M 189.5,173.5 C 184.5,173.5 179.5,173.5 174.5,173.5C 174.5,177.833 174.5,182.167 174.5,186.5C 179.5,186.5 184.5,186.5 189.5,186.5C 184.36,187.488 179.026,187.821 173.5,187.5C 173.5,182.5 173.5,177.5 173.5,172.5C 179.026,172.179 184.36,172.512 189.5,173.5 Z"/></g>
<g><path style="opacity:0" fill="none" d="M 189.5,173.5 C 196.249,175.122 197.916,178.955 194.5,185C 192.975,186.009 191.308,186.509 189.5,186.5C 184.5,186.5 179.5,186.5 174.5,186.5C 174.5,182.167 174.5,177.833 174.5,173.5C 179.5,173.5 184.5,173.5 189.5,173.5 Z"/></g>
<g><path style="opacity:1" fill="#a5361f" d="M 246.5,172.5 C 247.924,174.515 248.59,176.848 248.5,179.5C 247.076,177.485 246.41,175.152 246.5,172.5 Z"/></g>
<g><path style="opacity:1" fill="#5f1f11" d="M 320.5,178.5 C 315.5,178.5 310.5,178.5 305.5,178.5C 305.83,195.342 305.497,212.008 304.5,228.5C 304.5,211.5 304.5,194.5 304.5,177.5C 310.026,177.179 315.36,177.512 320.5,178.5 Z"/></g>
<g><path style="opacity:1" fill="#672114" d="M 248.5,179.5 C 249.162,181.304 249.495,183.304 249.5,185.5C 249.602,189.117 248.935,192.45 247.5,195.5C 248.194,190.195 248.528,184.862 248.5,179.5 Z"/></g>
<g><path style="opacity:1" fill="#dcdcdc" d="M 740.5,178.5 C 719.673,179.497 698.673,179.831 677.5,179.5C 677.5,181.5 677.5,183.5 677.5,185.5C 700.339,185.169 723.006,185.503 745.5,186.5C 722.5,186.5 699.5,186.5 676.5,186.5C 676.5,183.833 676.5,181.167 676.5,178.5C 697.833,178.5 719.167,178.5 740.5,178.5 Z"/></g>
<g><path style="opacity:1" fill="#b6b6b6" d="M 807.5,65.5 C 808.499,105.33 808.832,145.33 808.5,185.5C 829.34,185.169 850.007,185.503 870.5,186.5C 849.5,186.5 828.5,186.5 807.5,186.5C 807.5,146.167 807.5,105.833 807.5,65.5 Z"/></g>
<g><path style="opacity:1" fill="#c3c3c3" d="M 316.5,190.5 C 315.833,206.5 315.167,222.5 314.5,238.5C 314.333,221.83 314.5,205.163 315,188.5C 315.717,189.044 316.217,189.711 316.5,190.5 Z"/></g>
<g><path style="opacity:1" fill="#4a190e" d="M 667.5,168.5 C 667.5,177.5 667.5,186.5 667.5,195.5C 690.673,195.169 713.673,195.502 736.5,196.5C 736.167,196.5 735.833,196.5 735.5,196.5C 712.5,196.5 689.5,196.5 666.5,196.5C 666.173,186.985 666.506,177.652 667.5,168.5 Z"/></g>
<g><path style="opacity:1" fill="#343434" d="M 253.5,207.5 C 253.56,206.957 253.893,206.624 254.5,206.5C 255.499,217.146 255.832,227.813 255.5,238.5C 255.167,238.5 254.833,238.5 254.5,238.5C 254.828,227.986 254.494,217.653 253.5,207.5 Z"/></g>
<g><path style="opacity:1" fill="#d3d3d3" d="M 253.5,207.5 C 254.494,217.653 254.828,227.986 254.5,238.5C 253.833,229.167 253.167,219.833 252.5,210.5C 252.557,209.391 252.89,208.391 253.5,207.5 Z"/></g>
<g><path style="opacity:1" fill="#802a18" d="M 463.5,227.5 C 478.324,228.496 493.324,228.829 508.5,228.5C 493.328,229.826 477.995,229.826 462.5,228.5C 462.624,227.893 462.957,227.56 463.5,227.5 Z"/></g>
<g><path style="opacity:1" fill="#812a19" d="M 608.5,227.5 C 609.043,227.56 609.376,227.893 609.5,228.5C 594.005,229.826 578.672,229.826 563.5,228.5C 578.676,228.829 593.676,228.496 608.5,227.5 Z"/></g>
<g><path style="opacity:1" fill="#852b19" d="M 735.5,196.5 C 735.833,196.5 736.167,196.5 736.5,196.5C 736.5,207.5 736.5,218.5 736.5,229.5C 699.663,229.832 662.996,229.498 626.5,228.5C 626.833,228.5 627.167,228.5 627.5,228.5C 663.5,228.5 699.5,228.5 735.5,228.5C 735.5,217.833 735.5,207.167 735.5,196.5 Z"/></g>
<g><path style="opacity:1" fill="#8f2f1b" d="M 758.5,75.5 C 758.5,126.5 758.5,177.5 758.5,228.5C 792.5,228.5 826.5,228.5 860.5,228.5C 860.5,217.833 860.5,207.167 860.5,196.5C 861.495,207.321 861.828,218.321 861.5,229.5C 826.833,229.5 792.167,229.5 757.5,229.5C 757.168,177.997 757.501,126.664 758.5,75.5 Z"/></g>
<g><path style="opacity:1" fill="#939393" d="M 748.5,65.5 C 748.5,123.167 748.5,180.833 748.5,238.5C 789.167,238.5 829.833,238.5 870.5,238.5C 829.67,239.499 788.67,239.832 747.5,239.5C 747.168,181.331 747.501,123.331 748.5,65.5 Z"/></g>
</svg>
